<svg xmlns="http://www.w3.org/2000/svg" xmlns:xlink="http://www.w3.org/1999/xlink"><symbol id="icon-arrow" viewBox="0 0 24 24"><path d="m12 13.17 4.95-4.95 1.41 1.42L12 16 5.64 9.64l1.41-1.42L12 13.17Z" fill="currentColor"/></symbol><symbol id="icon-close" viewBox="0 0 24 24"><path d="m12 10.59 4.95-4.95 1.41 1.41L13.41 12l4.95 4.95-1.41 1.41L12 13.41l-4.95 4.95-1.41-1.41L10.59 12 5.64 7.05l1.41-1.41L12 10.59Z"/></symbol><symbol id="icon-info" viewBox="0 0 24 24"><path d="M12 22a10 10 0 1 1 0-20 10 10 0 0 1 0 20Zm-1-11v6h2v-6h-2Zm0-4v2h2V7h-2Z"/></symbol><symbol id="icon-settings" viewBox="0 0 24 24"><path d="M2.13 13.63a9.94 9.94 0 0 1 0-3.26c1.1.03 2.1-.5 2.48-1.43.38-.93.06-2-.74-2.76a9.94 9.94 0 0 1 2.3-2.31c.77.8 1.84 1.12 2.77.74.93-.39 1.46-1.38 1.43-2.48a9.94 9.94 0 0 1 3.26 0c-.03 1.1.5 2.1 1.43 2.48.93.38 2 .06 2.76-.74.9.64 1.67 1.41 2.31 2.3-.8.77-1.12 1.84-.74 2.77.39.93 1.38 1.46 2.48 1.43a9.94 9.94 0 0 1 0 3.26c-1.1-.03-2.1.5-2.48 1.43-.38.93-.06 2 .74 2.76a9.94 9.94 0 0 1-2.3 2.31c-.76-.8-1.84-1.12-2.77-.74-.93.39-1.46 1.38-1.43 2.48a9.94 9.94 0 0 1-3.26 0c.03-1.1-.5-2.1-1.43-2.48-.93-.38-2-.06-2.76.74a9.94 9.94 0 0 1-2.31-2.3c.8-.76 1.12-1.84.74-2.77-.39-.93-1.38-1.46-2.48-1.43ZM12 15a3 3 0 1 0 0-6 3 3 0 0 0 0 6Z"/></symbol><symbol id="icon-smile" viewBox="0 0 200 200"><path d="M100 183.33a83.33 83.33 0 1 0 0-166.66 83.33 83.33 0 0 0 0 166.66Z" fill="transparent" stroke="#6F8AE7" stroke-width="2" stroke-linecap="round" stroke-linejoin="round"/><path d="M66.67 133.33s12.5-16.66 33.33-16.66 33.33 16.66 33.33 16.66" stroke="#6F8AE7" stroke-width="2" stroke-linecap="round" stroke-linejoin="round" fill="transparent"/><path d="M75 75h.08M125 75h.08" stroke="#6F8AE7" stroke-width="4" stroke-linecap="round" stroke-linejoin="round" fill="transparent"/></symbol></svg>